<svg width="25" height="24" viewBox="0 0 25 24" fill="none" xmlns="http://www.w3.org/2000/svg">
<path d="M15.6558 3.83584L16.5285 2.26137C16.5397 2.24119 16.5468 2.21902 16.5494 2.19611C16.552 2.17319 16.55 2.15 16.5436 2.12784C16.5373 2.10568 16.5266 2.08499 16.5122 2.06696C16.4979 2.04893 16.4801 2.0339 16.4599 2.02274C16.4397 2.01158 16.4176 2.0045 16.3946 2.00191C16.3717 1.99932 16.3485 2.00126 16.3264 2.00764C16.3042 2.01401 16.2835 2.02469 16.2655 2.03905C16.2475 2.05342 16.2324 2.0712 16.2213 2.09137L15.3395 3.68221C14.5868 3.35218 13.7738 3.18179 12.9519 3.18179C12.13 3.18179 11.317 3.35218 10.5643 3.68221L9.68249 2.09137C9.65995 2.05039 9.62204 2.02004 9.57712 2.00699C9.5322 1.99395 9.48394 1.99929 9.44295 2.02183C9.40197 2.04437 9.37161 2.08228 9.35857 2.1272C9.34553 2.17212 9.35087 2.22038 9.37341 2.26137L10.2461 3.83584C9.41576 4.24536 8.71423 4.87561 8.21842 5.65749C7.72261 6.43937 7.45167 7.34268 7.43532 8.26836H18.4684C18.4519 7.34249 18.1807 6.43905 17.6846 5.65715C17.1884 4.87525 16.4865 4.24511 15.6558 3.83584ZM10.4061 6.24936C10.3149 6.24936 10.2258 6.22231 10.1499 6.17163C10.0741 6.12094 10.0151 6.04891 9.9802 5.96464C9.94534 5.88037 9.93627 5.78765 9.95413 5.69823C9.97198 5.6088 10.016 5.52668 10.0805 5.46226C10.1451 5.39784 10.2273 5.35401 10.3167 5.33633C10.4062 5.31865 10.4989 5.32791 10.5831 5.36293C10.6673 5.39796 10.7392 5.45717 10.7897 5.53308C10.8403 5.60899 10.8672 5.69819 10.867 5.78939C10.8667 5.91146 10.8181 6.02846 10.7317 6.11469C10.6453 6.20093 10.5282 6.24936 10.4061 6.24936ZM15.4986 6.24936C15.4074 6.24936 15.3182 6.22231 15.2424 6.17163C15.1666 6.12094 15.1075 6.04891 15.0727 5.96464C15.0378 5.88037 15.0288 5.78765 15.0466 5.69823C15.0645 5.6088 15.1085 5.52668 15.173 5.46226C15.2376 5.39784 15.3198 5.35401 15.4092 5.33633C15.4987 5.31865 15.5914 5.32791 15.6756 5.36293C15.7598 5.39796 15.8317 5.45717 15.8822 5.53308C15.9328 5.60899 15.9597 5.69819 15.9595 5.78939C15.9592 5.91146 15.9106 6.02846 15.8242 6.11469C15.7378 6.20093 15.6207 6.24936 15.4986 6.24936ZM7.4335 16.7007C7.43326 16.8762 7.46767 17.05 7.53475 17.2122C7.60183 17.3744 7.70027 17.5218 7.82442 17.6458C7.94856 17.7699 8.09598 17.8682 8.25821 17.9352C8.42044 18.0022 8.59429 18.0365 8.7698 18.0361H9.65431V20.7632C9.65431 21.0912 9.78461 21.4058 10.0165 21.6378C10.2485 21.8697 10.5631 22 10.8911 22C11.2191 22 11.5337 21.8697 11.7656 21.6378C11.9975 21.4058 12.1278 21.0912 12.1278 20.7632V18.0361H13.7768V20.7632C13.7768 21.0911 13.9071 21.4056 14.1389 21.6374C14.3708 21.8693 14.6853 21.9995 15.0131 21.9995C15.341 21.9995 15.6555 21.8693 15.8874 21.6374C16.1192 21.4056 16.2495 21.0911 16.2495 20.7632V18.0361H17.1349C17.3102 18.0362 17.4837 18.0018 17.6457 17.9348C17.8077 17.8677 17.9548 17.7694 18.0788 17.6455C18.2027 17.5216 18.301 17.3744 18.368 17.2124C18.435 17.0505 18.4695 16.8769 18.4694 16.7016V8.70471H7.4335V16.7007ZM5.73631 8.49199C5.40841 8.49247 5.09409 8.623 4.86232 8.85495C4.63054 9.08689 4.50024 9.4013 4.5 9.7292V14.8826C4.5 15.045 4.53198 15.2057 4.59411 15.3557C4.65624 15.5057 4.7473 15.642 4.86211 15.7568C4.97691 15.8716 5.1132 15.9627 5.26319 16.0248C5.41319 16.0869 5.57395 16.1189 5.73631 16.1189C5.89866 16.1189 6.05942 16.0869 6.20942 16.0248C6.35942 15.9627 6.49571 15.8716 6.61051 15.7568C6.72531 15.642 6.81637 15.5057 6.8785 15.3557C6.94063 15.2057 6.97261 15.045 6.97261 14.8826V9.7292C6.97213 9.40146 6.84172 9.08728 6.60998 8.85553C6.37823 8.62379 6.06405 8.49338 5.73631 8.4929M20.1647 8.4929C19.8368 8.49338 19.5225 8.62391 19.2907 8.85586C19.059 9.0878 18.9287 9.40221 18.9284 9.73011V14.8835C18.9284 15.0459 18.9604 15.2066 19.0225 15.3566C19.0847 15.5066 19.1757 15.6429 19.2905 15.7577C19.4053 15.8725 19.5416 15.9636 19.6916 16.0257C19.8416 16.0878 20.0024 16.1198 20.1647 16.1198C20.3271 16.1198 20.4878 16.0878 20.6378 16.0257C20.7878 15.9636 20.9241 15.8725 21.0389 15.7577C21.1537 15.6429 21.2448 15.5066 21.3069 15.3566C21.3691 15.2066 21.401 15.0459 21.401 14.8835V9.7292C21.4006 9.40146 21.2701 9.08728 21.0384 8.85553C20.8067 8.62379 20.4925 8.49338 20.1647 8.4929Z" fill="white"/>
</svg>
